<?xml version="1.0" encoding="utf-8"?>
<!-- Generator: Adobe Illustrator 22.0.1, SVG Export Plug-In . SVG Version: 6.00 Build 0)  -->
<svg version="1.1" id="svg2" xmlns:svg="http://www.w3.org/2000/svg"
	 xmlns="http://www.w3.org/2000/svg" xmlns:xlink="http://www.w3.org/1999/xlink" x="0px" y="0px" viewBox="0 0 47.5 47.5"
	 style="enable-background:new 0 0 47.5 47.5;" xml:space="preserve">
<style type="text/css">
	.st0{clip-path:url(#SVGID_2_);}
	.st1{fill:#DD2E44;}
	.st2{fill:#A0041E;}
	.st3{fill:#EEEEEE;}
	.st4{fill:#CCD6DD;}
</style>
<g id="g12" transform="matrix(1.25,0,0,-1.25,0,47.5)">
	<g id="g14">
		<g>
			<defs>
				<rect id="SVGID_1_" x="-4.8" y="-4.8" width="47.5" height="47.5"/>
			</defs>
			<clipPath id="SVGID_2_">
				<use xlink:href="#SVGID_1_"  style="overflow:visible;"/>
			</clipPath>
			<g id="g16" class="st0">
				<g id="g22" transform="translate(19,1)">
					<path id="path24" class="st1" d="M0,0c-15,0-17,15-17,19h34C17,17,15,0,0,0"/>
				</g>
				<g id="g26" transform="translate(36,19.9443)">
					<path id="path28" class="st2" d="M0,0c0-5.2-7.6-9.4-17-9.4S-34-5.2-34,0s7.6,9.4,17,9.4S0,5.2,0,0"/>
				</g>
				<g id="g30" transform="translate(19,12)">
					<path id="path32" class="st3" d="M0,0c-6,0-16,3-16,8c0,6,6.1,13,16,13s16-8,16-13S7,0,0,0"/>
				</g>
				<g id="g34" transform="translate(16.4102,17.1084)">
					<path id="path36" class="st4" d="M0,0c0.4-0.4,0.5-1,0.1-1.4c-0.4-0.4-1-0.5-1.4-0.1l-1.5,1.3c-0.4,0.4-0.5,1-0.1,1.4
						c0.4,0.4,1,0.5,1.4,0.1L0,0z"/>
				</g>
				<g id="g38" transform="translate(8.2827,18.6152)">
					<path id="path40" class="st4" d="M0,0c-0.3-0.5-0.9-0.6-1.4-0.3C-1.8,0-2,0.6-1.7,1.1l1.1,1.7c0.3,0.5,0.9,0.6,1.4,0.3
						c0.5-0.3,0.6-0.9,0.3-1.4L0,0z"/>
				</g>
				<g id="g42" transform="translate(31.2832,18.6152)">
					<path id="path44" class="st4" d="M0,0c-0.3-0.5-0.9-0.6-1.4-0.3C-1.8,0-2,0.6-1.7,1.1l1.1,1.7c0.3,0.5,0.9,0.6,1.4,0.3
						c0.5-0.3,0.6-0.9,0.3-1.4L0,0z"/>
				</g>
				<g id="g46" transform="translate(25.1797,22.2207)">
					<path id="path48" class="st4" d="M0,0c0.1-0.5-0.2-1.1-0.8-1.2C-1.3-1.3-1.9-0.9-2-0.4l-0.4,2c-0.1,0.5,0.2,1.1,0.8,1.2
						C-1,2.9-0.5,2.5-0.4,2L0,0z"/>
				</g>
				<g id="g50" transform="translate(17.6401,26.1792)">
					<path id="path52" class="st4" d="M0,0c-0.3,0.1-0.5,0.5-0.4,0.9c0.1,0.3,0.5,0.5,0.9,0.4l1.2-0.5c0.3-0.1,0.5-0.5,0.4-0.9
						C2-0.5,1.6-0.6,1.2-0.5L0,0z"/>
				</g>
				<g id="g54" transform="translate(8.3442,24.6123)">
					<path id="path56" class="st4" d="M0,0c-0.3-0.2-0.7-0.1-0.9,0.2c-0.2,0.3-0.1,0.7,0.2,0.9l1.1,0.8C0.7,2.1,1.1,2,1.3,1.7
						C1.5,1.4,1.4,1,1.1,0.8L0,0z"/>
				</g>
				<g id="g58" transform="translate(21.9365,16.0674)">
					<path id="path60" class="st4" d="M0,0c-0.6,0-1,0.5-0.9,1.1c0,0.6,0.5,1,1.1,0.9l2-0.1c0.5,0,1-0.5,0.9-1.1
						c0-0.6-0.5-1-1.1-0.9L0,0z"/>
				</g>
				<g id="g62" transform="translate(12.6963,22.4526)">
					<path id="path64" class="st4" d="M0,0c-0.5,0.2-0.8,0.8-0.5,1.3c0.2,0.5,0.8,0.8,1.3,0.5l1.9-0.8c0.5-0.2,0.8-0.8,0.5-1.3
						C2.9-0.7,2.4-1,1.9-0.8L0,0z"/>
				</g>
				<g id="g66" transform="translate(28.6406,25.1792)">
					<path id="path68" class="st4" d="M0,0c-0.3,0.1-0.5,0.5-0.4,0.9c0.1,0.3,0.5,0.5,0.9,0.4l1.3-0.5c0.3-0.1,0.5-0.5,0.4-0.9
						C2-0.5,1.6-0.6,1.2-0.5L0,0z"/>
				</g>
			</g>
		</g>
	</g>
</g>
<g>
	<path class="st3" d="M16.1,34.8v1l-2.9,4h3.1v1.1h-4.5v-1l3-3.9h-2.9v-1.1H16.1z"/>
	<path class="st3" d="M20.4,44.1c-0.8-0.4-1.3-0.8-1.5-1.5c-0.2-0.6-0.2-1.3,0.2-2.1l0.3-0.6c0.4-0.8,0.9-1.4,1.5-1.6
		c0.6-0.3,1.3-0.2,2,0.1c0.7,0.3,1.1,0.8,1.3,1.5c0.1,0.7,0,1.5-0.4,2.4l-0.2,0.4l-3.7-1.7l0.4-0.9l2.7,1.2c0.2-0.5,0.2-0.9,0.1-1.2
		c-0.1-0.3-0.3-0.6-0.6-0.7c-0.4-0.2-0.8-0.2-1.1,0c-0.4,0.2-0.6,0.5-0.9,1L20.1,41c-0.2,0.5-0.3,0.9-0.1,1.2
		c0.1,0.4,0.4,0.6,0.9,0.8c0.5,0.2,1,0.2,1.5,0.1l0.4,1c-0.4,0.1-0.8,0.2-1.2,0.2C21.1,44.3,20.8,44.2,20.4,44.1z"/>
	<path class="st3" d="M22,43.6l5.8-7.6l1,0.7l-5.8,7.6L22,43.6z M29.1,39.8c0.1-0.5-0.1-0.8-0.4-1.1c-0.3-0.2-0.6-0.3-1-0.1
		c-0.4,0.1-0.7,0.4-1.1,0.9l1-1.5c0.5-0.3,0.9-0.5,1.4-0.6c0.4-0.1,0.8,0,1.1,0.2c0.4,0.3,0.6,0.8,0.6,1.4L29.1,39.8z"/>
	<path class="st3" d="M34.6,41c-0.8,0-1.4-0.2-1.9-0.7s-0.7-1.1-0.7-2v-1c0-0.8,0.2-1.5,0.7-1.9s1.1-0.7,1.9-0.7s1.4,0.2,1.9,0.7
		s0.7,1.1,0.7,1.9v1c0,0.8-0.2,1.5-0.7,1.9S35.4,41,34.6,41z M34.6,39.8c0.4,0,0.7-0.1,1-0.4s0.3-0.6,0.3-1.1v-1
		c0-0.5-0.1-0.8-0.3-1.1s-0.6-0.4-1-0.4s-0.7,0.1-1,0.4s-0.3,0.6-0.3,1.1v1c0,0.5,0.1,0.8,0.3,1.1S34.2,39.8,34.6,39.8z"/>
</g>
</svg>
